<?xml version="1.0" encoding="UTF-8"?>
<svg version="1.1" xmlns="http://www.w3.org/2000/svg" width="500" height="500">
<path d="M0 0 C165 0 330 0 500 0 C500 165 500 330 500 500 C335 500 170 500 0 500 C0 335 0 170 0 0 Z " fill="#010101" transform="translate(0,0)"/>
<path d="M0 0 C57.09 0 114.18 0 173 0 C173 43 173 43 163 54 C160.525 56.475 160.525 56.475 158 59 C156.91912109 60.15048828 156.91912109 60.15048828 155.81640625 61.32421875 C146.23044565 71.37535595 134.79208491 78.77135608 123 86 C121.70255859 86.83724609 121.70255859 86.83724609 120.37890625 87.69140625 C118 89 118 89 115 89 C115 89.66 115 90.32 115 91 C114.38511719 91.18175781 113.77023437 91.36351562 113.13671875 91.55078125 C112.32847656 91.80214844 111.52023437 92.05351562 110.6875 92.3125 C109.88699219 92.55613281 109.08648437 92.79976563 108.26171875 93.05078125 C105.86810315 94.05535567 104.80212299 95.18808286 103 97 C100.98120955 97.44481824 98.9598957 97.88013066 96.9296875 98.26953125 C92.45346432 99.3856029 88.22130381 101.095675 83.93676758 102.79223633 C77.77780152 105.19802287 71.61814436 107.00454897 65 107.625 C63.8553125 107.73714844 63.8553125 107.73714844 62.6875 107.8515625 C62.130625 107.90054688 61.57375 107.94953125 61 108 C55.20600858 97.49356223 55.20600858 97.49356223 53.1875 93.25 C49.03776459 84.82898882 43.93110092 76.7336421 38.625 69 C36.23045503 65.48669221 34.6528168 61.92543991 33 58 C31.55760033 55.4736918 30.04635139 52.99654701 28.52734375 50.515625 C26.76008844 47.60485156 25.11013629 44.64306018 23.46875 41.66015625 C21.55894106 38.20116719 19.62407 34.75656004 17.6875 31.3125 C17.11370605 30.2901123 17.11370605 30.2901123 16.52832031 29.24707031 C14.58691046 25.79405312 12.63029941 22.35124325 10.640625 18.92578125 C10.08435425 17.96514771 10.08435425 17.96514771 9.5168457 16.98510742 C8.49253347 15.21984279 7.46320435 13.45749205 6.43359375 11.6953125 C5 9 5 9 5 7 C4.360625 6.773125 3.72125 6.54625 3.0625 6.3125 C2.381875 5.879375 1.70125 5.44625 1 5 C0.67 3.35 0.34 1.7 0 0 Z " fill="#FCFCFC" transform="translate(220,316)"/>
<path d="M0 0 C3.72560651 1.24186884 4.11106999 2.32682477 6.125 5.625 C6.73472656 6.61757813 7.34445313 7.61015625 7.97265625 8.6328125 C8.64167969 9.74398438 9.31070313 10.85515625 10 12 C10.74831324 13.22679723 11.49702303 14.45335264 12.24609375 15.6796875 C16.16246931 22.12219572 19.91265915 28.61631885 23.4765625 35.26171875 C25.84215288 39.51371581 28.43082194 43.6227847 31 47.75390625 C33.45487651 51.7382859 35.80251314 55.77899528 38.1484375 59.828125 C40.25910249 63.44386334 42.40657577 67.03613655 44.5625 70.625 C45.13266846 71.57765747 45.13266846 71.57765747 45.71435547 72.54956055 C47.42017255 75.39517023 49.14155629 78.22538778 50.90625 81.03515625 C51.4528125 81.91042969 51.999375 82.78570312 52.5625 83.6875 C53.03816406 84.43386719 53.51382813 85.18023437 54.00390625 85.94921875 C55 88 55 88 55 92 C55.66 92 56.32 92 57 92 C58.3245153 93.93009324 59.5589053 95.92233397 60.75 97.9375 C61.46991188 99.14278972 62.19127303 100.34721496 62.9140625 101.55078125 C63.26887695 102.1432666 63.62369141 102.73575195 63.98925781 103.34619141 C65.29843503 105.48830891 66.70147339 107.55749707 68.125 109.625 C70.82619818 113.61870699 73.09211134 117.77535257 75.3515625 122.03125 C77.79438704 126.43064965 80.52952085 130.63856316 83.265625 134.859375 C85.1510513 138.27352533 86.07204025 141.23134712 87 145 C85.82006945 145.94700919 84.63054211 146.88206299 83.4375 147.8125 C82.77621094 148.33457031 82.11492187 148.85664063 81.43359375 149.39453125 C79.01918281 150.98734489 76.59345837 152.02683079 73.92456055 153.1184082 C70.3017078 154.77794408 67.02285265 157.02060268 63.6875 159.1875 C62.27737266 160.10173044 60.86472922 161.01209541 59.44921875 161.91796875 C58.83393311 162.31781982 58.21864746 162.7176709 57.5847168 163.12963867 C56 164 56 164 54 164 C54 164.66 54 165.32 54 166 C28.98564817 167.50086111 1.01813841 152.90140352 -19.46875 139.63671875 C-20.97710226 138.66141073 -22.49494103 137.70017995 -24.03125 136.76953125 C-25.6875 135.75 -25.6875 135.75 -28 134 C-28 133.01 -28 132.02 -28 131 C-28.825 130.814375 -29.65 130.62875 -30.5 130.4375 C-35.3073856 128.46303806 -38.27160243 125.57517576 -42 122 C-42.60215332 121.43958008 -43.20430664 120.87916016 -43.82470703 120.30175781 C-45.90061445 118.36464507 -47.95196219 116.40402864 -50 114.4375 C-50.68376709 113.80046143 -51.36753418 113.16342285 -52.07202148 112.50708008 C-52.70825439 111.88470459 -53.3444873 111.2623291 -54 110.62109375 C-54.5775 110.0686499 -55.155 109.51620605 -55.75 108.94702148 C-57.55566567 106.1344856 -57.39172823 104.28820528 -57 101 C-55.76245117 98.2109375 -55.76245117 98.2109375 -54.04296875 95.375 C-53.11581055 93.82039063 -53.11581055 93.82039063 -52.16992188 92.234375 C-51.51572266 91.16703125 -50.86152344 90.0996875 -50.1875 89 C-48.90867394 86.87589172 -47.63128399 84.75091804 -46.35546875 82.625 C-45.78465576 81.68914062 -45.21384277 80.75328125 -44.62573242 79.7890625 C-42.95088339 76.91573688 -41.45628882 73.98918092 -40 71 C-39.34 71 -38.68 71 -38 71 C-37.77054688 70.01902344 -37.54109375 69.03804688 -37.3046875 68.02734375 C-35.98742501 63.42387018 -33.62591506 59.61281579 -31.125 55.5625 C-28.2098087 50.78314334 -25.44950813 46.01600781 -22.99169922 40.98461914 C-21.28408792 37.56729461 -19.38727609 34.25794651 -17.5 30.9375 C-17.12230469 30.26912109 -16.74460938 29.60074219 -16.35546875 28.91210938 C-13.9168488 24.60052875 -11.46000007 20.29940921 -9 16 C-8.34 16 -7.68 16 -7 16 C-6.95875 15.21625 -6.9175 14.4325 -6.875 13.625 C-5.6274716 8.45666805 -2.86484354 4.43306065 0 0 Z " fill="#FBFBFB" transform="translate(171,260)"/>
<path d="M0 0 C3.69382218 1.34320807 6.93619043 3.0813041 10.30859375 5.0625 C12.10072244 6.10507804 12.10072244 6.10507804 14.5625 7 C17.6746006 8.27675922 20.20081214 10.13275732 23 12 C26.32008117 13.9123983 29.64108223 15.82159077 32.9765625 17.70703125 C39.35959517 22.54791003 41.02496884 29.51781106 43.0625 36.9375 C43.30548828 37.77345703 43.54847656 38.60941406 43.79882812 39.47070312 C47.86139794 53.92138248 49.5160476 67.5205408 49.44604492 82.47998047 C49.43755086 85.23351386 49.46639659 87.98495163 49.49804688 90.73828125 C49.5620474 106.72771652 47.2601414 122.18145005 41.75 137.25 C41.481875 138.01828125 41.21375 138.7865625 40.9375 139.578125 C40.30348499 141.38959645 39.65377981 143.19556773 39 145 C31.84505304 145.72855918 24.74441542 146.18282951 17.5546875 146.31640625 C16.5695517 146.33723267 15.58441589 146.35805908 14.56942749 146.3795166 C11.33802737 146.44549496 8.10655353 146.50455396 4.875 146.5625 C3.76314331 146.58367889 2.65128662 146.60485779 1.5057373 146.62667847 C-25.99531301 147.14273224 -53.49524637 147.10202884 -81 147 C-80.02506745 140.49053507 -80.02506745 140.49053507 -77.625 137.625 C-74.79890937 133.96004096 -73.52493655 130.35696156 -72 126 C-71.34 125.01 -70.68 124.02 -70 123 C-69.34 123 -68.68 123 -68 123 C-67.90589844 122.30261719 -67.81179688 121.60523438 -67.71484375 120.88671875 C-66.85791011 117.42620533 -65.38914933 114.86957423 -63.5625 111.8125 C-62.94503906 110.76707031 -62.32757813 109.72164063 -61.69140625 108.64453125 C-60 106 -60 106 -58 104 C-57.46085811 102.66093563 -56.9684101 101.30291545 -56.5 99.9375 C-54.30546102 94.28172122 -51.32695204 89.28306497 -48.20825195 84.10546875 C-43.98959902 77.07259372 -40.07557255 69.88928091 -36.19921875 62.66308594 C-33.66139012 57.95465523 -31.02284075 53.37239173 -28.15014648 48.86108398 C-26.33678655 45.92683588 -24.76901621 42.87591261 -23.1875 39.8125 C-13.65932254 21.65932254 -13.65932254 21.65932254 -9 17 C-8.33014021 15.43511748 -7.71099882 13.8481786 -7.125 12.25 C-5.37708578 7.72637182 -3.48401359 3.48401359 0 0 Z " fill="#FBFBFB" transform="translate(381,158)"/>
<path d="M0 0 C2.22265625 2.45703125 2.22265625 2.45703125 4.0625 5.8125 C4.55882935 6.69023071 4.55882935 6.69023071 5.06518555 7.58569336 C6.07052707 9.37708643 7.03778875 11.18514607 8 13 C8.57234375 14.04671875 9.1446875 15.0934375 9.734375 16.171875 C10.72897118 17.99366008 11.71124205 19.8222807 12.67578125 21.66015625 C13.96217093 23.93315748 15.42853326 25.91946657 17 28 C17.28875 28.763125 17.5775 29.52625 17.875 30.3125 C19.07904529 33.18883043 20.73298483 35.42550888 22.578125 37.921875 C25.41313251 42.06534751 27.64624443 46.57195851 30 51 C30.89078148 52.64857304 31.78622707 54.29463913 32.6875 55.9375 C33.25017578 56.97197266 33.25017578 56.97197266 33.82421875 58.02734375 C34.99427 60.0708037 34.99427 60.0708037 36.58203125 62.1015625 C38.21901776 64.29323039 39.00758242 66.45692995 40 69 C40.97808201 70.67962298 41.98238933 72.34402708 43 74 C43.639375 75.0415625 44.27875 76.083125 44.9375 77.15625 C45.618125 78.2596875 46.29875 79.363125 47 80.5 C48.33559073 82.66527588 49.66906291 84.83186055 51 87 C51.55300781 87.88042969 52.10601562 88.76085937 52.67578125 89.66796875 C54.37115897 92.65363393 55.1551614 95.68563317 56 99 C56.66 99 57.32 99 58 99 C58.33 100.65 58.66 102.3 59 104 C3.56 104 -51.88 104 -109 104 C-109 60.14208827 -109 60.14208827 -94.37109375 45.32421875 C-93.40300781 44.45410156 -92.43492188 43.58398438 -91.4375 42.6875 C-90.93154297 42.22150391 -90.42558594 41.75550781 -89.90429688 41.27539062 C-86.27194173 38 -86.27194173 38 -84 38 C-83.67 37.01 -83.34 36.02 -83 35 C-79.86693361 32.39555798 -76.39991817 30.24043521 -73 28 C-72.113125 27.40574219 -71.22625 26.81148437 -70.3125 26.19921875 C-64.63719768 22.47892609 -58.84426955 19.2945552 -52.7265625 16.359375 C-49.99263713 15.04459563 -49.99263713 15.04459563 -47.4765625 13.4609375 C-40.47640605 9.33150767 -33.03910311 7.5271543 -25 7 C-25 6.34 -25 5.68 -25 5 C-22.14879208 4.15519765 -19.29472656 3.32398584 -16.4375 2.5 C-15.23770508 2.14228516 -15.23770508 2.14228516 -14.01367188 1.77734375 C-9.29198961 0.42829168 -4.9276167 -0.8091025 0 0 Z " fill="#FCFCFC" transform="translate(218,69)"/>
<path d="M0 0 C0.79825195 0.18119385 1.59650391 0.3623877 2.41894531 0.54907227 C7.37543876 1.71551385 12.03597813 3.12751793 16.703125 5.1875 C19.81371825 6.51781661 22.98799589 7.58895781 26.1875 8.6875 C37.16140067 12.57954503 46.95365636 17.96017971 56.25390625 24.94140625 C58.37122251 26.41957906 58.37122251 26.41957906 61.53125 28.0703125 C65.15637698 30.1187559 68.13280313 32.6857143 71.125 35.5625 C72.17115875 36.54633509 73.218034 37.52940886 74.265625 38.51171875 C74.76642578 38.98399902 75.26722656 39.4562793 75.78320312 39.94287109 C77.60435958 41.63801568 79.48319526 43.25939875 81.375 44.875 C84.36901931 47.48533196 87.26933966 50.17613033 90.125 52.9375 C90.87652344 53.66324219 91.62804687 54.38898438 92.40234375 55.13671875 C94.28680836 57.36756197 94.83684407 58.39635215 95.1875 61.25 C94.39892578 63.20117188 94.39892578 63.20117188 93.1328125 65.21875 C92.68292969 65.95480469 92.23304688 66.69085938 91.76953125 67.44921875 C91.28871094 68.20847656 90.80789063 68.96773438 90.3125 69.75 C89.37311256 71.25762726 88.438049 72.76795929 87.5078125 74.28125 C87.08773926 74.94705078 86.66766602 75.61285156 86.23486328 76.29882812 C85.17154494 78.27972328 84.63236582 80.05443115 84.1875 82.25 C83.5275 82.25 82.8675 82.25 82.1875 82.25 C81.79884766 83.30574219 81.79884766 83.30574219 81.40234375 84.3828125 C80.08761851 87.48573315 78.4915985 90.2410627 76.75 93.125 C74.20410518 97.42119751 71.98567965 101.59588796 70.1875 106.25 C69.5275 106.25 68.8675 106.25 68.1875 106.25 C67.98125 107.03375 67.775 107.8175 67.5625 108.625 C66.10382046 112.4706097 64.25201232 115.6462103 62.1015625 119.13671875 C59.71153545 123.0241709 57.38315756 126.94586016 55.0625 130.875 C54.64291016 131.57923096 54.22332031 132.28346191 53.79101562 133.0090332 C51.80558802 136.36943999 49.9158006 139.73409002 48.203125 143.2421875 C46.07604206 147.57410853 43.61604266 151.65826992 41.0625 155.75 C40.62035156 156.47703125 40.17820312 157.2040625 39.72265625 157.953125 C38.60126314 159.75548493 37.40083582 161.50820781 36.1875 163.25 C35.5275 163.25 34.8675 163.25 34.1875 163.25 C32.87974298 161.38607045 31.66776328 159.45468431 30.5 157.5 C30.14768311 156.91524902 29.79536621 156.33049805 29.43237305 155.72802734 C26.48822203 150.82220944 23.6440204 145.85814243 20.78515625 140.90234375 C19.42728645 138.64808068 18.00931013 136.54419477 16.4375 134.4375 C14.49591012 131.68691433 13.29057563 129.18938233 12.00878906 126.10766602 C10.7024682 123.15291113 9.06849682 120.41074257 7.4375 117.625 C4.77366845 113.04759132 2.21046858 108.44152284 -0.25 103.75 C-3.07785857 98.43646666 -6.22996524 93.44175597 -9.5378418 88.42333984 C-12.57083474 83.76550601 -15.06349127 78.94457181 -17.48046875 73.9375 C-19.95005621 68.95487193 -22.71826242 64.5043699 -26.375 60.3125 C-28.41862324 57.7448708 -29.44083487 56.05385501 -30.6640625 53.1171875 C-32.72432578 48.35647158 -35.09504489 43.83816141 -37.625 39.3125 C-38.0578833 38.53124756 -38.4907666 37.74999512 -38.93676758 36.94506836 C-41.86939635 31.72530349 -45.03881476 26.82264003 -48.73046875 22.09765625 C-49.26607422 21.18306641 -49.26607422 21.18306641 -49.8125 20.25 C-48.46099668 16.19549003 -45.87767625 15.2993117 -42.3125 13.375 C-41.67538086 13.02131348 -41.03826172 12.66762695 -40.38183594 12.30322266 C-38.52993314 11.27694032 -36.6721041 10.26224241 -34.8125 9.25 C-33.22841856 8.37635508 -31.64494471 7.50160606 -30.0625 6.625 C-29.36898438 6.24730469 -28.67546875 5.86960937 -27.9609375 5.48046875 C-26.37539143 4.57238327 -24.8220225 3.60756955 -23.2890625 2.61328125 C-22.43054688 2.06027344 -21.57203125 1.50726563 -20.6875 0.9375 C-19.92179687 0.42574219 -19.15609375 -0.08601563 -18.3671875 -0.61328125 C-12.44791496 -3.247086 -6.05816959 -1.39650944 0 0 Z " fill="#FCFCFC" transform="translate(289.8125,68.75)"/>
<path d="M0 0 C39.6 0 79.2 0 120 0 C119.0050652 4.974674 117.90252427 7.02296237 115.125 11.125 C111.30039978 16.88105068 107.75035537 22.75523234 104.3125 28.75 C103.84183105 29.57008545 103.37116211 30.3901709 102.88623047 31.23510742 C101.98656691 32.8032423 101.08714038 34.3715132 100.18798828 35.93994141 C98.73680776 38.4563946 97.25160495 40.9508422 95.75 43.4375 C93.56775552 47.05342836 91.39828835 50.67625783 89.25 54.3125 C88.39148438 55.76076172 88.39148438 55.76076172 87.515625 57.23828125 C85.97016778 59.91993162 85.97016778 59.91993162 84.96875 62.59375 C83.97280531 65.0675481 82.77356295 67.00454556 81.25 69.1875 C76.61177836 76.00445044 72.48971268 83.0300142 68.625 90.3125 C64.16110377 98.67861015 59.26109786 106.75758012 53.875 114.5625 C51.66417088 117.8224357 49.89622065 121.13897876 48.1875 124.6875 C45.81590607 129.53706541 43.22250311 134.16893 40.375 138.75 C40.00270264 139.37092529 39.63040527 139.99185059 39.24682617 140.6315918 C38.1484375 142.359375 38.1484375 142.359375 36 145 C32 145 32 145 30.53125 143.609375 C30.0259375 143.07828125 29.520625 142.5471875 29 142 C26.8786144 141.03129458 26.8786144 141.03129458 24.5 140.25 C19.42001419 138.31723572 15.10843869 135.73036759 10.609375 132.69921875 C8.11162285 130.993235 8.11162285 130.993235 5.703125 129.89453125 C1.12717716 127.64956436 -0.71616244 125.26807666 -2.6875 120.5625 C-14.82066101 84.57292105 -17.18794678 40.8768982 -3 5 C-2.34 5 -1.68 5 -1 5 C-0.67 3.35 -0.34 1.7 0 0 Z " fill="#FCFCFC" transform="translate(82,185)"/>
<path d="M0 0 C0.33 0.99 0.66 1.98 1 3 C-2.3 6.3 -5.6 9.6 -9 13 C-9.66 12.67 -10.32 12.34 -11 12 C-9.54234835 10.37438849 -8.08385614 8.74953066 -6.625 7.125 C-5.81289062 6.22007813 -5.00078125 5.31515625 -4.1640625 4.3828125 C-2.80923795 2.89103817 -1.42494565 1.42494565 0 0 Z " fill="#CCCCCC" transform="translate(125,113)"/>
<path d="M0 0 C0.75 1.5625 0.75 1.5625 1 4 C-0.13084437 6.50286409 -1.52139516 8.67007722 -3 11 C-3.66 11 -4.32 11 -5 11 C-3.77472971 6.94718288 -2.30119506 3.55639236 0 0 Z " fill="#AEAEAE" transform="translate(329,249)"/>
</svg>
